<?xml version="1.0" encoding="UTF-8"?>
<svg width="250px" height="250px" viewBox="0 0 250 250" version="1.1" xmlns="http://www.w3.org/2000/svg" xmlns:xlink="http://www.w3.org/1999/xlink">
    <!-- Generator: Sketch 42 (36781) - http://www.bohemiancoding.com/sketch -->
    <title>fundapi-avatar</title>
    <desc>Created with Sketch.</desc>
    <defs>
        <circle id="path-1" cx="125" cy="125" r="125"></circle>
    </defs>
    <g id="Page-1" stroke="none" stroke-width="1" fill="none" fill-rule="evenodd">
        <g id="fundapi-avatar">
            <mask id="mask-2" fill="white">
                <use xlink:href="#path-1"></use>
            </mask>
            <use id="Mask" fill="#FFFFFF" xlink:href="#path-1"></use>
            <g mask="url(#mask-2)">
                <circle id="Oval-2" fill="#FFFFFF" cx="125" cy="125" r="125"></circle>
                <path d="M91.6,219.9 L91.6,216.9 L86.3,216.9 C87.8,214.9 88.7,212.5 88.7,209.8 C88.7,203.2 83.4,197.9 76.8,197.9 C70.2,197.9 64.9,203.2 64.9,209.8 C64.9,210.6 65,211.3 65.1,212 C64.1,211.6 63.1,211.4 62,211.4 C57.3,211.4 53.6,215.2 53.6,219.8 L91.6,219.8 L91.6,219.9 Z" id="Shape" fill="#85A600" fill-rule="nonzero"></path>
                <path d="M57.9,219.9 C57,217.4 54.7,215.6 51.9,215.6 C49.1,215.6 46.7,217.4 45.9,219.9 L57.9,219.9 Z" id="Shape" fill="#85A600" fill-rule="nonzero"></path>
                <g id="XMLID_64_" transform="translate(45.000000, 142.000000)" fill-rule="nonzero">
                    <g id="XMLID_67_" transform="translate(15.000000, 62.000000)" fill="#55241A">
                        <polygon id="XMLID_68_" points="0.2 0.7 2.6 0.7 2.6 15.8 0.2 15.8"></polygon>
                    </g>
                    <path d="M15,63.8 L16.8,63.8 C24.9,63.8 31.4,57.3 31.4,49.2 L31.4,15 C31.4,6.9 24.9,0.4 16.8,0.4 L15,0.4 C6.9,0.4 0.4,6.9 0.4,15 L0.4,49.2 C0.4,57.3 6.9,63.8 15,63.8 L15,63.8 Z" id="XMLID_66_" fill="#9EC300"></path>
                    <path d="M15.9,0.4 C23.1,0.4 29.1,5.3 30.9,11.9 C29.6,8.3 26.1,5.8 22.1,5.8 C16.9,5.8 12.7,10 12.7,15.2 L12.7,42.1 C12.7,47.3 8.5,51.5 3.3,51.5 C2.4,51.5 1.6,51.4 0.7,51.1 C0.5,50.2 0.4,49.2 0.4,48.3 L0.4,15.9 C0.4,7.3 7.3,0.4 15.9,0.4 Z" id="XMLID_65_" fill="#C0CE06"></path>
                </g>
                <polygon id="Shape" fill="#FFC92F" fill-rule="nonzero" points="85.5 84 444.1 84 444.1 220 85.5 220"></polygon>
                <path d="M85.5,167.8 L444.2,167.8 L444.2,172.5 L85.5,172.5 L85.5,167.8 Z M85.5,179.9 L444.2,179.9 L444.2,184.6 L85.5,184.6 L85.5,179.9 Z M85.5,191.9 L444.2,191.9 L444.2,196.6 L85.5,196.6 L85.5,191.9 Z M85.5,85.3 L444.1,85.3 L444.1,88.1 L85.5,88.1 L85.5,85.3 Z" id="Shape" fill="#F8B000" fill-rule="nonzero"></path>
                <path d="M118.6,212.5 L118.6,212.1 C118.6,209.3 116.4,207.1 113.6,207.1 C112.8,207.1 112.1,207.3 111.4,207.6 C110.6,206.3 109.2,205.4 107.6,205.4 C106.8,205.4 106.1,205.6 105.5,206 C104.6,205.1 103.4,204.5 102.1,204.5 C99.7,204.5 97.8,206.3 97.5,208.6 C97.2,208.5 96.9,208.5 96.6,208.5 C94.3,208.5 92.5,210.2 92.2,212.4 C91.4,213.4 91,214.6 91,216 C91,217.6 91.6,219 92.6,220 L119.8,220 C120.6,219.2 121.2,218 121.2,216.7 C121.2,214.9 120.1,213.3 118.6,212.5 L118.6,212.5 Z" id="Shape" fill="#85A600" fill-rule="nonzero"></path>
                <polygon id="Shape" fill="#FFC92F" fill-rule="nonzero" points="98 43.7 123.7 43.7 123.7 69.6 98 69.6"></polygon>
                <polygon id="Shape" fill="#84D0F0" fill-rule="nonzero" points="94 43.7 123.7 43.7 123.7 46.3 94 46.3"></polygon>
                <polygon id="Shape" fill="#00AAE6" fill-rule="nonzero" points="94 37.8 146.7 37.8 146.7 43.7 94 43.7"></polygon>
                <polygon id="Shape" fill="#F6861E" fill-rule="nonzero" points="134.6 32.3 444.2 32.3 444.2 82.8 75.2 82.8"></polygon>
                <path d="M177,201.4 L104.3,201.4 L104.3,202.3 C104.3,203.2 105,203.9 105.9,203.9 L175.5,203.9 C176.4,203.9 177.1,203.2 177.1,202.3 L177.1,201.4 L177,201.4 Z" id="Shape" fill="#F8B000" fill-rule="nonzero"></path>
                <polygon id="Shape" fill="#55241A" fill-rule="nonzero" points="105.8 157 175.6 157 175.6 200 105.8 200"></polygon>
                <polygon id="Shape" fill="#977A74" fill-rule="nonzero" points="110.1 163.1 167.4 163.1 167.4 193.2 110.1 193.2"></polygon>
                <path d="M119.5,204 C116.3,204 113.7,201.4 113.7,198.2 L113.7,186 C113.7,182.8 116.3,180.2 119.5,180.2 C122.7,180.2 125.3,182.8 125.3,186 L125.3,198.2 C125.3,201.4 122.7,204 119.5,204 Z" id="Shape" fill="#55241A" fill-rule="nonzero"></path>
                <path d="M111.8,198.3 C108.6,198.3 106,195.7 106,192.5 L106,180.3 C106,177.1 108.6,174.5 111.8,174.5 C115,174.5 117.6,177.1 117.6,180.3 L117.6,192.5 C117.6,195.7 115,198.3 111.8,198.3 Z M166.1,199.7 C166.1,199.5 166.1,199.3 166.2,199.2 C166.3,197.3 165.8,195.6 164.9,194.2 C164.1,192.9 163.9,191.4 164.3,190 C164.5,189.4 164.5,188.8 164.5,188.2 C164.5,186.9 164.1,185.6 163.4,184.6 C162.7,183.5 162.5,182.2 162.8,181 C162.9,180.6 163,180.2 163,179.7 C163,176.9 160.8,174.6 158,174.5 C155.1,174.4 152.6,176.8 152.6,179.7 C152.6,180.1 152.7,180.6 152.8,181 C153.1,182.2 152.9,183.6 152.2,184.6 C151.5,185.6 151.1,186.9 151.1,188.2 C151.1,188.8 151.2,189.4 151.3,190 C151.7,191.5 151.4,193 150.6,194.3 C149.8,195.6 149.3,197.1 149.3,198.8 C149.3,199.2 149.3,199.5 149.4,199.9 C154.9,199.2 160.5,199.8 166.1,199.7 L166.1,199.7 Z" id="Shape" fill="#55241A" fill-rule="nonzero"></path>
                <path d="M167.2,190.4 L168.6,186.1 L163.1,186.1 L164.5,190.4 C162.8,191 161.6,192.5 161.6,194.4 C161.6,196.8 163.5,198.7 165.9,198.7 C168.3,198.7 170.2,196.8 170.2,194.4 C170.1,192.6 168.9,191 167.2,190.4 Z" id="XMLID_62_" fill="#00AAE6" fill-rule="nonzero"></path>
                <path d="M105.8,157 L175.6,157 L175.6,200 L105.8,200 L105.8,157 Z M128.1,157.3 L128.1,199.7 L128.1,157.3 Z M105.9,167.4 L128.2,167.4 L105.9,167.4 Z" id="Shape" stroke="#FFFFFF" stroke-width="2.7638"></path>
                <path d="M149.7,193.4 C149.7,194.8 149,196 149,196 C149,196 148.3,194.8 148.3,193.4 C148.3,192 149,190.8 149,190.8 C149,190.8 149.7,192 149.7,193.4 Z" id="Shape" fill="#96B432" fill-rule="nonzero"></path>
                <path d="M148.6,194.5 C149.1,195.5 149,196.6 149,196.6 C149,196.6 148.1,196 147.6,195 C147.1,194 147.2,192.9 147.2,192.9 C147.2,192.9 148.1,193.4 148.6,194.5 Z" id="Shape" fill="#96B432" fill-rule="nonzero"></path>
                <path d="M149.3,194.5 C148.8,195.5 148.9,196.6 148.9,196.6 C148.9,196.6 149.8,196 150.3,195 C150.8,194 150.7,192.9 150.7,192.9 C150.7,192.9 149.8,193.4 149.3,194.5 Z" id="Shape" fill="#96B432" fill-rule="nonzero"></path>
                <path d="M149,198.6 C148.2,198.6 147.6,198 147.6,197.2 L147.6,195.7 L150.4,195.7 L150.4,197.2 C150.4,197.9 149.7,198.6 149,198.6 L149,198.6 Z" id="Shape" fill="#F8B000" fill-rule="nonzero"></path>
                <path d="M155.9,193.4 C155.9,194.8 155.2,196 155.2,196 C155.2,196 154.5,194.8 154.5,193.4 C154.5,192 155.2,190.8 155.2,190.8 C155.2,190.8 155.9,192 155.9,193.4 Z" id="Shape" fill="#96B432" fill-rule="nonzero"></path>
                <path d="M154.8,194.5 C155.3,195.5 155.2,196.6 155.2,196.6 C155.2,196.6 154.3,196 153.8,195 C153.3,194 153.4,192.9 153.4,192.9 C153.4,192.9 154.3,193.4 154.8,194.5 Z" id="Shape" fill="#96B432" fill-rule="nonzero"></path>
                <path d="M155.5,194.5 C155,195.5 155.1,196.6 155.1,196.6 C155.1,196.6 156,196 156.5,195 C157,194 156.9,192.9 156.9,192.9 C156.9,192.9 156,193.4 155.5,194.5 Z" id="Shape" fill="#96B432" fill-rule="nonzero"></path>
                <path d="M155.2,198.6 C154.4,198.6 153.8,198 153.8,197.2 L153.8,195.7 L156.6,195.7 L156.6,197.2 C156.6,197.9 156,198.6 155.2,198.6 L155.2,198.6 Z" id="Shape" fill="#F8B000" fill-rule="nonzero"></path>
                <path d="M106.2,191.5 L141.9,157 L175.3,157 L174.6,165.2 L139.9,200.4 L105.8,200.4 C105.8,200.4 106.2,190.7 106.2,191.5 L106.2,191.5 Z" id="Shape" fill="#FFFFFF" fill-rule="nonzero" opacity="0.12"></path>
                <path d="M143.4,185.6 L137.8,185.6 C137.8,185.6 139.2,187.1 139.2,188.4 C139.2,189.7 136.8,191.2 136.8,194.3 C136.8,197.4 138.6,198.6 140.6,198.6 C142.5,198.6 144.4,197.5 144.4,194.3 C144.4,191.2 142,189.7 142,188.4 C141.9,187.1 143.4,185.6 143.4,185.6 Z" id="Shape" fill="#F6861E" fill-rule="nonzero"></path>
                <polygon id="Shape" fill="#55241A" fill-rule="nonzero" points="105.8 95.5 175.6 95.5 175.6 134.1 105.8 134.1"></polygon>
                <path d="M120.2,132.8 C118.8,132.8 117.6,131.6 117.6,130.2 L117.6,127.3 L122.8,127.3 L122.8,130.2 C122.8,131.6 121.7,132.8 120.2,132.8 L120.2,132.8 Z" id="Shape" fill="#744C44" fill-rule="nonzero"></path>
                <circle id="Oval" fill="#744C44" fill-rule="nonzero" cx="120.3" cy="125.9" r="1.8"></circle>
                <circle id="Oval" fill="#744C44" fill-rule="nonzero" cx="118.6" cy="123" r="1.8"></circle>
                <circle id="Oval" fill="#744C44" fill-rule="nonzero" cx="120.6" cy="120.5" r="1.8"></circle>
                <path d="M143.4,101.8 L143.4,100.3 L142.2,100.3 L142.2,96.4 L141.7,96.4 L141.7,100.3 L140.5,100.3 L140.5,101.8 C138.5,102.4 137,104.3 137,106.5 L137,107.1 L146.9,107.1 L146.9,106.5 C146.9,104.3 145.4,102.5 143.4,101.8 Z" id="Shape" fill="#744C44" fill-rule="nonzero"></path>
                <path d="M158.9,96.3 L158.9,106.7 C158.9,111.4 162.7,115.3 167.5,115.3 L167.5,133 L175.6,133 L175.6,96.3 L158.9,96.3 L158.9,96.3 Z M122.1,96.3 L122.1,106.7 C122.1,111.4 118.3,115.3 113.5,115.3 L113.5,133 L105.4,133 L105.4,96.3 L122.1,96.3 Z" id="Shape" fill="#F6861E" fill-rule="nonzero"></path>
                <path d="M176.9,135.4 L104.4,135.4 L104.4,94.1 L176.9,94.1 L176.9,135.4 L176.9,135.4 Z M107.2,132.7 L174.2,132.7 L174.2,96.9 L107.2,96.9 L107.2,132.7 L107.2,132.7 Z" id="Shape" fill="#FFFFFF" fill-rule="nonzero"></path>
                <path d="M177,135.4 L104.3,135.4 L104.3,136.3 C104.3,137.2 105,137.9 105.9,137.9 L175.5,137.9 C176.4,137.9 177.1,137.2 177.1,136.3 L177.1,135.4 L177,135.4 Z" id="Shape" fill="#F8B000" fill-rule="nonzero"></path>
                <polygon id="Shape" fill="#FFFFFF" fill-rule="nonzero" points="126.9 95.8 129.7 95.8 129.7 133.9 126.9 133.9"></polygon>
                <path d="M175.5,134.1 L175.5,108 L149.5,134.1 L175.5,134.1 Z M105.8,131.6 L141.6,95.8 L141.3,95.5 L105.8,95.5 L105.8,131.6 Z" id="Shape" fill="#FFFFFF" fill-rule="nonzero" opacity="0.12"></path>
                <path d="M151,125.5 L151,122 L149.3,122 L149.3,125.5 C148.3,125.5 147.5,126.3 147.5,127.3 L147.5,132.6 L152.8,132.6 L152.8,127.3 C152.9,126.4 152,125.5 151,125.5 Z M144.2,127.5 L144.2,125 L143,125 L143,127.5 C142.3,127.5 141.7,128.1 141.7,128.8 L141.7,132.7 L145.6,132.7 L145.6,128.8 C145.5,128.1 144.9,127.5 144.2,127.5 Z" id="Shape" fill="#744C44" fill-rule="nonzero"></path>
                <polygon id="Shape" fill="#F8B000" fill-rule="nonzero" points="200.3 163.9 228.5 163.9 228.5 219.5 200.3 219.5"></polygon>
                <path d="M229.9,220 L198.9,220 L198.9,162.5 L229.9,162.5 L229.9,220 Z M201.7,217.9 L227.2,217.9 L227.2,165.3 L201.7,165.3 L201.7,217.9 Z M198.9,155.7 L229.9,155.7 L229.9,162.5 L198.9,162.5 L198.9,155.7 Z" id="Shape" fill="#FFFFFF" fill-rule="nonzero"></path>
                <polygon id="Shape" fill="#857B77" fill-rule="nonzero" opacity="0.2" points="198.9 162.5 229.9 162.5 229.9 168.5 198.9 168.5"></polygon>
                <path d="M209.5,172.9 L209.5,182.1 L219.5,182.1 L219.5,172.9 L209.5,172.9 Z M209.5,193.5 L219.5,193.5 L219.5,184.3 L209.5,184.3 L209.5,193.5 Z M209.5,204.8 L219.5,204.8 L219.5,195.6 L209.5,195.6 L209.5,204.8 Z" id="Shape" fill="#55241A" fill-rule="nonzero"></path>
                <circle id="Oval" fill="#FFFFFF" fill-rule="nonzero" cx="223.4" cy="190.9" r="1.6"></circle>
                <path d="M209.5,193.5 L213,193.5 L219.5,187 L219.5,185.9 L209.5,185.9 L209.5,193.5 Z M211.3,174.8 L209.5,176.6 L209.5,182.2 L219.5,182.2 L219.5,174.8 L211.3,174.8 Z" id="Shape" fill="#FFFFFF" fill-rule="nonzero" opacity="0.12"></path>
                <polygon id="Shape" fill="#55241A" fill-rule="nonzero" points="198.5 95.4 230.4 95.4 230.4 105.8 198.5 105.8"></polygon>
                <polygon id="Shape" fill="#61342B" fill-rule="nonzero" points="198.5 105.8 206.1 105.8 215.5 96.4 214.5 95.4 198.5 95.4"></polygon>
                <path d="M231.8,107.2 L197.1,107.2 L197.1,94 L231.8,94 L231.8,107.2 Z M199.9,104.4 L229,104.4 L229,96.8 L199.8,96.8 L199.8,104.4 L199.9,104.4 Z" id="Shape" fill="#FFFFFF" fill-rule="nonzero"></path>
                <path d="M214.1,125.5 L207.5,125.5 C206.9,125.5 206.4,125 206.4,124.4 L206.4,122.9 C206.4,122.3 206.9,121.8 207.5,121.8 L214.1,121.8 C214.7,121.8 215.2,122.3 215.2,122.9 L215.2,124.4 C215.2,125 214.7,125.5 214.1,125.5 Z M225.2,125.5 L218.6,125.5 C218,125.5 217.5,125 217.5,124.4 L217.5,122.9 C217.5,122.3 218,121.8 218.6,121.8 L225.2,121.8 C225.8,121.8 226.3,122.3 226.3,122.9 L226.3,124.4 C226.3,125 225.8,125.5 225.2,125.5 Z M219.5,120.2 L212.9,120.2 C212.3,120.2 211.8,119.7 211.8,119.1 L211.8,117.6 C211.8,117 212.3,116.5 212.9,116.5 L219.5,116.5 C220.1,116.5 220.6,117 220.6,117.6 L220.6,119.1 C220.6,119.7 220.1,120.2 219.5,120.2 Z M239.5,144.7 L232.9,144.7 C232.3,144.7 231.8,144.2 231.8,143.6 L231.8,142.1 C231.8,141.5 232.3,141 232.9,141 L239.5,141 C240.1,141 240.6,141.5 240.6,142.1 L240.6,143.6 C240.6,144.2 240.1,144.7 239.5,144.7 Z M233.8,139.3 L227.2,139.3 C226.6,139.3 226.1,138.8 226.1,138.2 L226.1,136.7 C226.1,136.1 226.6,135.6 227.2,135.6 L233.8,135.6 C234.4,135.6 234.9,136.1 234.9,136.7 L234.9,138.2 C234.9,138.9 234.5,139.3 233.8,139.3 Z M202.2,139.3 L195.6,139.3 C195,139.3 194.5,138.8 194.5,138.2 L194.5,136.7 C194.5,136.1 195,135.6 195.6,135.6 L202.2,135.6 C202.8,135.6 203.3,136.1 203.3,136.7 L203.3,138.2 C203.3,138.9 202.8,139.3 202.2,139.3 Z M417.6,127.5 L424.2,127.5 C424.8,127.5 425.3,127 425.3,126.4 L425.3,124.9 C425.3,124.3 424.8,123.8 424.2,123.8 L417.6,123.8 C417,123.8 416.5,124.3 416.5,124.9 L416.5,126.4 C416.5,127 417,127.5 417.6,127.5 Z M423.3,122.2 L429.9,122.2 C430.5,122.2 431,121.7 431,121.1 L431,119.6 C431,119 430.5,118.5 429.9,118.5 L423.3,118.5 C422.7,118.5 422.2,119 422.2,119.6 L422.2,121.1 C422.1,121.7 422.6,122.2 423.3,122.2 Z M444.2,135.6 L439.2,135.6 C438.6,135.6 438.1,136.1 438.1,136.7 L438.1,138.2 C438.1,138.8 438.6,139.3 439.2,139.3 L444.2,139.3 L444.2,135.6 L444.2,135.6 Z M90.4,203 L85.5,203 L85.5,206.7 L90.4,206.7 C91,206.7 91.5,206.2 91.5,205.6 L91.5,204.1 C91.6,203.5 91.1,203 90.4,203 Z M338.4,201.4 L265.7,201.4 L265.7,202.3 C265.7,203.2 266.4,203.9 267.3,203.9 L336.9,203.9 C337.8,203.9 338.5,203.2 338.5,202.3 L338.5,201.4 L338.4,201.4 Z" id="Shape" fill="#F8B000" fill-rule="nonzero"></path>
                <g id="Group" transform="translate(155.000000, 202.000000)" fill-rule="nonzero">
                    <path d="M3.6,0.6 L5.4,0.6 L5.4,11.5 L3.6,11.5 L3.6,0.6 Z M35.8,0.6 L37.6,0.6 L37.6,11.5 L35.8,11.5 L35.8,0.6 Z" id="Shape" fill="#D6681E"></path>
                    <path d="M38.6,9.3 L2.6,9.3 C2,9.3 1.6,8.8 1.6,8.3 L1.6,6.4 C1.6,5.8 2.1,5.4 2.6,5.4 L38.6,5.4 C39.2,5.4 39.6,5.9 39.6,6.4 L39.6,8.3 C39.7,8.8 39.2,9.3 38.6,9.3 Z M38.6,4.1 L2.6,4.1 C2,4.1 1.6,3.6 1.6,3.1 L1.6,1.2 C1.6,0.6 2.1,0.2 2.6,0.2 L38.6,0.2 C39.2,0.2 39.6,0.7 39.6,1.2 L39.6,3.1 C39.7,3.7 39.2,4.1 38.6,4.1 Z M3.6,18 L5.3,12.3 L3.4,12.3 L1.7,18 L3.6,18 Z M39.4,18 L37.7,12.3 L35.8,12.3 L37.5,18 L39.4,18 Z" id="Shape" fill="#F6861E"></path>
                    <path d="M2.7,14.7 L4.6,14.7 L5.3,12.3 L3.4,12.3 L2.7,14.7 Z M37.7,12.3 L35.8,12.3 L36.5,14.7 L38.4,14.7 L37.7,12.3 Z" id="Shape" fill="#D6681E"></path>
                    <path d="M40.4,12.6 L1,12.6 C0.4,12.6 0,12.2 0,11.6 C0,11 0.4,10.6 1,10.6 L40.4,10.6 C41,10.6 41.4,11 41.4,11.6 C41.4,12.2 40.9,12.6 40.4,12.6 Z" id="Shape" fill="#F6861E"></path>
                </g>
                <g id="Group" transform="translate(114.000000, 180.000000)" fill-rule="nonzero">
                    <polygon id="Shape" fill="#55241A" points="21.784 34.888 23.126 36.233 19.091 40.259 17.751 38.913"></polygon>
                    <polygon id="Shape" fill="#55241A" points="18.018 31.524 20.025 43.354 18.152 43.674 16.144 31.842"></polygon>
                    <circle id="Oval" fill="#9EC300" cx="12.3" cy="20.5" r="6.4"></circle>
                    <circle id="Oval" fill="#9EC300" cx="14.1" cy="29.8" r="6.4"></circle>
                    <circle id="Oval" fill="#9EC300" cx="18.8" cy="12.8" r="6.7"></circle>
                    <circle id="Oval" fill="#9EC300" cx="29.1" cy="16.3" r="6.7"></circle>
                    <circle id="Oval" fill="#9EC300" cx="31.9" cy="25.5" r="6.7"></circle>
                    <circle id="Oval" fill="#9EC300" cx="19.9" cy="26.6" r="6.7"></circle>
                    <circle id="Oval" fill="#9EC300" cx="24.9" cy="31.7" r="6.7"></circle>
                    <circle id="Oval" fill="#9EC300" cx="22.9" cy="21.4" r="6.7"></circle>
                    <polygon id="Shape" fill="#55241A" points="8.502 8.437 13.112 17.537 11.417 18.395 6.807 9.295"></polygon>
                    <circle id="Oval" fill="#9EC300" cx="3.5" cy="7.3" r="3.4"></circle>
                    <circle id="Oval" fill="#9EC300" cx="8" cy="3.8" r="3.4"></circle>
                    <circle id="Oval" fill="#9EC300" cx="8" cy="8.4" r="3.4"></circle>
                </g>
                <g id="Group" transform="translate(208.000000, 20.000000)" fill-rule="nonzero">
                    <polygon id="Shape" fill="#FFC92F" points="0.1 0.1 14.7 0.1 14.7 17.1 0.1 17.1"></polygon>
                    <polygon id="Shape" fill="#FFFFFF" points="0.1 17.1 14.7 17.1 14.7 18.9 0.1 18.9"></polygon>
                </g>
                <circle id="Oval" fill="#96B432" fill-rule="nonzero" cx="244.1" cy="199.4" r="1.1"></circle>
                <circle id="Oval" fill="#96B432" fill-rule="nonzero" cx="235.8" cy="206.8" r="1.8"></circle>
                <circle id="Oval" fill="#85A600" fill-rule="nonzero" cx="238.6" cy="196.6" r="2.4"></circle>
                <circle id="Oval" fill="#96B432" fill-rule="nonzero" cx="234.1" cy="202.8" r="2.4"></circle>
                <circle id="Oval" fill="#96B432" fill-rule="nonzero" cx="246.5" cy="195.3" r="2.4"></circle>
                <circle id="Oval" fill="#96B432" fill-rule="nonzero" cx="242.9" cy="194.9" r="2.4"></circle>
                <path d="M235.4,220 L234.5,220 L234.5,204.6 C234.5,200.7 237.7,197.5 241.6,197.5 C245,197.5 247.8,194.7 247.8,191.3 L247.8,185.5 L248.7,185.5 L248.7,191.3 C248.7,195.2 245.5,198.4 241.6,198.4 C238.2,198.4 235.4,201.2 235.4,204.6 L235.4,220 Z" id="Shape" fill="#96B432" fill-rule="nonzero"></path>
                <g id="Group" transform="translate(242.000000, 84.000000)" fill-rule="nonzero">
                    <polygon id="Shape" fill="#FFE393" points="0.9 0 3.2 0 3.2 135.9 0.9 135.9"></polygon>
                    <path d="M0.9,9.3 L3.2,9.3 L3.2,9.9 L0.9,9.9 L0.9,9.3 Z M0.9,31.3 L3.2,31.3 L3.2,31.9 L0.9,31.9 L0.9,31.3 Z M0.9,53.3 L3.2,53.3 L3.2,53.9 L0.9,53.9 L0.9,53.3 Z M0.9,77.8 L3.2,77.8 L3.2,78.4 L0.9,78.4 L0.9,77.8 Z M0.9,99.8 L3.2,99.8 L3.2,100.4 L0.9,100.4 L0.9,99.8 Z M0.9,121.7 L3.2,121.7 L3.2,122.3 L0.9,122.3 L0.9,121.7 Z" id="Shape" fill="#F8B000"></path>
                    <polygon id="Shape" fill="#FFC865" points="0.9 1.3 3.2 1.3 3.2 4.1 0.9 4.1"></polygon>
                </g>
                <circle id="Oval" fill="#96B432" fill-rule="nonzero" cx="252.4" cy="204.5" r="3.5"></circle>
                <circle id="Oval" fill="#96B432" fill-rule="nonzero" cx="250.4" cy="209.5" r="3.5"></circle>
                <path d="M262.8,221 C262.4,218.9 260.6,217.3 258.4,217.3 C257.9,217.3 257.4,217.4 256.9,217.6 C256.8,214.3 254.1,211.7 250.8,211.7 C247.4,211.7 244.6,214.5 244.6,217.9 C244.6,218.2 244.6,218.4 244.7,218.6 C244.2,218.3 243.6,218.1 243,218.1 C241.2,218.1 239.8,219.4 239.4,221 L262.8,221 L262.8,221 Z" id="Shape" fill="#96B432" fill-rule="nonzero"></path>
                <circle id="Oval" fill="#C0CE06" fill-rule="nonzero" cx="239.2" cy="199.1" r="2.4"></circle>
                <g id="Group" transform="translate(244.000000, 209.000000)" fill-rule="nonzero">
                    <path d="M100.1,0.8 L5.4,0.8 C2.5,0.8 0.2,3.1 0.2,6 L0.2,20.3 L105.4,20.3 L105.4,6 C105.3,3.1 103,0.8 100.1,0.8 Z" id="Shape" fill="#9EC300"></path>
                    <path d="M5.3,11.2 C5.3,7.9 8,5.3 11.2,5.3 L94.5,5.3 C97,5.3 99,3.3 99,0.8 L5.4,0.8 C2.9,0.8 0.8,2.6 0.3,4.9 L0.2,16.4 C3,16.4 5.3,14.1 5.3,11.2 Z" id="Shape" fill="#C0CE06"></path>
                </g>
                <g id="Group" transform="translate(68.000000, 209.000000)" fill-rule="nonzero">
                    <path d="M46.3,0.8 L5.5,0.8 C2.6,0.8 0.3,3.1 0.3,6 L0.3,20.3 L51.6,20.3 L51.6,6 C51.5,3.1 49.2,0.8 46.3,0.8 Z" id="Shape" fill="#9EC300"></path>
                    <path d="M5.4,11.2 C5.4,7.9 8.1,5.3 11.3,5.3 L40.7,5.3 C43.2,5.3 45.2,3.3 45.2,0.8 L5.5,0.8 C3,0.8 0.9,2.6 0.4,4.9 L0.3,16.4 C3.1,16.4 5.4,14.1 5.4,11.2 Z" id="Shape" fill="#C0CE06"></path>
                </g>
                <g id="Group" transform="translate(134.000000, 214.000000)" fill-rule="nonzero">
                    <path d="M26.9,15.3 L26.9,13.2 L23.2,13.2 C24.2,11.8 24.9,10.1 24.9,8.3 C24.9,3.7 21.2,0 16.6,0 C12,0 8.3,3.7 8.3,8.3 C8.3,8.8 8.4,9.4 8.5,9.9 C7.8,9.6 7.1,9.5 6.3,9.5 C3.1,9.5 0.4,12.1 0.4,15.4 L26.9,15.4 L26.9,15.3 Z" id="Shape" fill="#85A600"></path>
                    <path d="M44.6,15.3 C44.7,15 44.7,14.7 44.7,14.3 C44.7,11.6 42.5,9.5 39.9,9.5 C38.8,9.5 37.7,9.9 36.9,10.5 L36.9,10 C36.9,7.3 34.7,5.2 32.1,5.2 C31.2,5.2 30.5,5.4 29.8,5.8 C29.5,3.4 27.5,1.6 25,1.6 C22.3,1.6 20.2,3.8 20.2,6.4 C20.2,6.8 20.3,7.2 20.3,7.5 C20,7.5 19.8,7.4 19.5,7.4 C16.2,7.4 13.5,10.1 13.5,13.4 C13.5,14 13.6,14.6 13.7,15.1 L44.6,15.1 L44.6,15.3 Z" id="Shape" fill="#9EC300"></path>
                </g>
                <polygon id="Shape" fill="#FFFFFF" fill-rule="nonzero" points="75.2 82.8 444.2 82.8 444.2 85.3 75.2 85.3"></polygon>
                <path d="M189.6,229.3 C188.9,227.5 187.1,226.1 185,226.1 C182.9,226.1 181.1,227.4 180.4,229.3 L189.6,229.3 Z" id="Shape" fill="#85A600" fill-rule="nonzero"></path>
                <path d="M187.4,229.4 L194,229.4 C195.2,226.6 195.9,223.3 195.9,223.3 C195.9,223.3 195.2,223.9 194.2,224.8 C194.4,222.6 194.3,220.8 194.3,220.8 C194.3,220.8 193.1,222.4 192,224.4 C191.8,221.1 190.6,217.6 190.6,217.6 C190.6,217.6 189,222.1 188.9,225.6 L188.9,226 C187,223.5 184.3,221.4 184.3,221.4 C184.3,221.4 185.3,226.1 187.2,229.1 C187.3,229.2 187.3,229.3 187.4,229.4 Z" id="Shape" fill="#9EC300" fill-rule="nonzero"></path>
                <path d="M200.2,229.3 C199.6,227.8 198.1,226.7 196.4,226.7 C194.7,226.7 193.2,227.8 192.6,229.3 L200.2,229.3 L200.2,229.3 Z" id="Shape" fill="#85A600" fill-rule="nonzero"></path>
                <g id="XMLID_1585_" transform="translate(102.000000, 154.000000)" fill-rule="nonzero">
                    <polygon id="XMLID_1613_" fill="#FFFFFF" points="0.7 0.2 70.5 0.2 70.5 16 0.7 16"></polygon>
                    <g id="XMLID_1610_">
                        <polygon id="XMLID_1612_" fill="#FFFFFF" points="0.5 0.2 8.5 0.2 8.5 16 0.5 16"></polygon>
                        <path d="M8.4,16.1 C8.4,18.2 6.7,20 4.5,20 C2.3,20 0.6,18.3 0.6,16.1 L8.4,16.1 Z" id="XMLID_1611_" fill="#84D0F0"></path>
                    </g>
                    <g id="XMLID_1607_" transform="translate(8.000000, 0.000000)">
                        <polygon id="XMLID_1609_" fill="#5DC9EF" points="0.4 0.2 8.2 0.2 8.2 16 0.4 16"></polygon>
                        <path d="M8.2,16.1 C8.2,18.2 6.5,20 4.3,20 C2.2,20 0.4,18.3 0.4,16.1 L8.2,16.1 L8.2,16.1 Z" id="XMLID_1608_" fill="#00AAE6"></path>
                    </g>
                    <g id="XMLID_1604_" transform="translate(16.000000, 0.000000)">
                        <polygon id="XMLID_1606_" fill="#FFFFFF" points="0.2 0.2 8 0.2 8 16 0.2 16"></polygon>
                        <path d="M7.9,16.1 C7.9,18.2 6.2,20 4,20 C1.8,20 0.1,18.3 0.1,16.1 L7.9,16.1 L7.9,16.1 Z" id="XMLID_1605_" fill="#84D0F0"></path>
                    </g>
                    <g id="XMLID_1601_" transform="translate(23.000000, 0.000000)">
                        <polygon id="XMLID_1603_" fill="#5DC9EF" points="0.9 0.2 8.7 0.2 8.7 16 0.9 16"></polygon>
                        <path d="M8.7,16.1 C8.7,18.2 7,20 4.8,20 C2.7,20 0.9,18.3 0.9,16.1 L8.7,16.1 L8.7,16.1 Z" id="XMLID_1602_" fill="#00AAE6"></path>
                    </g>
                    <g id="XMLID_1598_" transform="translate(31.000000, 0.000000)">
                        <polygon id="XMLID_1600_" fill="#FFFFFF" points="0.7 0.2 8.5 0.2 8.5 16 0.7 16"></polygon>
                        <path d="M8.5,16.1 C8.5,18.2 6.8,20 4.6,20 C2.4,20 0.7,18.3 0.7,16.1 L8.5,16.1 L8.5,16.1 Z" id="XMLID_1599_" fill="#84D0F0"></path>
                    </g>
                    <g id="XMLID_1595_" transform="translate(39.000000, 0.000000)">
                        <polygon id="XMLID_1597_" fill="#5DC9EF" points="0.5 0.2 8.3 0.2 8.3 16 0.5 16"></polygon>
                        <path d="M8.2,16.1 C8.2,18.2 6.5,20 4.3,20 C2.2,20 0.4,18.3 0.4,16.1 L8.2,16.1 L8.2,16.1 Z" id="XMLID_1596_" fill="#00AAE6"></path>
                    </g>
                    <g id="XMLID_1592_" transform="translate(47.000000, 0.000000)">
                        <polygon id="XMLID_1594_" fill="#FFFFFF" points="0.2 0.2 8 0.2 8 16 0.2 16"></polygon>
                        <path d="M8,16.1 C8,18.2 6.3,20 4.1,20 C1.9,20 0.2,18.3 0.2,16.1 L8,16.1 L8,16.1 Z" id="XMLID_1593_" fill="#84D0F0"></path>
                    </g>
                    <g id="XMLID_1589_" transform="translate(54.000000, 0.000000)">
                        <polygon id="XMLID_1591_" fill="#5DC9EF" points="1 0.2 8.8 0.2 8.8 16 1 16"></polygon>
                        <path d="M8.7,16.1 C8.7,18.2 7,20 4.8,20 C2.7,20 0.9,18.3 0.9,16.1 L8.7,16.1 L8.7,16.1 Z" id="XMLID_1590_" fill="#00AAE6"></path>
                    </g>
                    <g id="XMLID_40_" transform="translate(70.000000, 0.000000)">
                        <polygon id="XMLID_70_" fill="#5DC9EF" points="0.7 0.2 8.5 0.2 8.5 16 0.7 16"></polygon>
                        <path d="M8.4,16.1 C8.4,18.2 6.7,20 4.5,20 C2.4,20 0.6,18.3 0.6,16.1 L8.4,16.1 Z" id="XMLID_69_" fill="#00AAE6"></path>
                    </g>
                    <g id="XMLID_1586_" transform="translate(62.000000, 0.000000)">
                        <polygon id="XMLID_1588_" fill="#FFFFFF" points="0.7 0.2 8.7 0.2 8.7 16 0.7 16"></polygon>
                        <path d="M8.5,16.1 C8.5,18.2 6.8,20 4.6,20 C2.4,20 0.7,18.3 0.7,16.1 L8.5,16.1 Z" id="XMLID_1587_" fill="#84D0F0"></path>
                    </g>
                </g>
                <g id="XMLID_1481_" transform="translate(185.000000, 171.000000)" fill-rule="nonzero">
                    <polygon id="XMLID_1492_" fill="#FFD100" points="8.9 8.7 9.6 3.8 2 3.8 2.7 8.7"></polygon>
                    <polygon id="XMLID_1491_" fill="#FFFFFF" points="8.9 8.7 8.6 10.1 3 10.1 2.7 8.7"></polygon>
                    <path d="M5.8,11.8 C5.6,11.8 5.4,11.6 5.4,11.4 L5.4,3.8 C5.4,3.6 5.6,3.4 5.8,3.4 C6,3.4 6.2,3.6 6.2,3.8 L6.2,11.4 C6.2,11.6 6,11.8 5.8,11.8 Z" id="XMLID_1485_" fill="#55241A"></path>
                    <path d="M9,10.7 L2.6,10.7 L1.5,3.4 L10.1,3.4 L9,10.7 Z M3.4,9.8 L8.3,9.8 L9.1,4.2 L2.5,4.2 L3.4,9.8 L3.4,9.8 Z" id="XMLID_1484_" fill="#55241A"></path>
                    <path d="M5.6,0.9 L1,3.1 C0.5,3.3 0.7,4.1 1.2,4.1 L10.3,4.1 C10.9,4.1 11,3.3 10.5,3.1 L5.9,0.9 L5.6,0.9 L5.6,0.9 Z" id="XMLID_1483_" fill="#55241A"></path>
                    <polygon id="XMLID_1482_" fill="#55241A" points="4.2 8.3 7.3 8.3 7.3 10.2 4.2 10.2"></polygon>
                </g>
            </g>
        </g>
    </g>
</svg>