<?xml version="1.0" encoding="UTF-8"?>
<svg width="250px" height="250px" viewBox="0 0 250 250" version="1.1" xmlns="http://www.w3.org/2000/svg" xmlns:xlink="http://www.w3.org/1999/xlink">
    <!-- Generator: Sketch 42 (36781) - http://www.bohemiancoding.com/sketch -->
    <title>user-avatar</title>
    <desc>Created with Sketch.</desc>
    <defs></defs>
    <g id="Page-1" stroke="none" stroke-width="1" fill="none" fill-rule="evenodd">
        <g id="user-avatar">
            <circle id="Oval-2" fill="#FFFFFF" cx="125" cy="125" r="125"></circle>
            <g id="XMLID_70_" transform="translate(142.383420, 87.751295)" fill-rule="nonzero" fill="#0093E6">
                <path d="M0.206735751,36.3165803 L20.0533679,36.3165803 C31.7683938,36.3165803 41.2782383,26.8067358 41.2782383,15.0917098 L41.2782383,0.0689119171 L19.984456,0.0689119171 L19.984456,15.0917098 L0.137823834,15.0917098 L0.137823834,36.3165803 L0.206735751,36.3165803 Z" id="XMLID_71_"></path>
            </g>
            <g id="XMLID_66_" transform="translate(59.000000, 102.911917)" fill-rule="nonzero">
                <path d="M39.4176166,61.6072539 L35.6963731,61.6072539 L35.6963731,40.6580311 L39.4176166,40.6580311 C42.6564767,40.6580311 45.3440415,43.2766839 45.3440415,46.584456 L45.3440415,55.680829 C45.3440415,58.9196891 42.6564767,61.6072539 39.4176166,61.6072539 L39.4176166,61.6072539 Z" id="XMLID_69_" fill="#F8B000"></path>
                <g id="XMLID_67_" fill="#84D0F0">
                    <path d="M21.4316062,61.6072539 L35.765285,61.6072539 L35.765285,40.6580311 L26.6689119,40.6580311 C23.7746114,40.6580311 21.5005181,38.3150259 21.5005181,35.4207254 L21.5005181,26.6 C21.5005181,23.4300518 24.0502591,20.8803109 27.2202073,20.8803109 L40.3823834,20.8803109 L40.3823834,0 L21.3626943,0 C9.85440415,0 0.48238342,9.37202073 0.48238342,20.8803109 L0.48238342,40.726943 C0.48238342,52.2352332 9.85440415,61.6072539 21.4316062,61.6072539 L21.4316062,61.6072539 Z" id="XMLID_68_"></path>
                </g>
            </g>
            <g id="XMLID_64_" transform="translate(84.497409, 124.963731)" fill-rule="nonzero" fill="#55241A">
                <path d="M0.0689119171,73.3222798 L55.4740933,73.3222798 C59.4709845,73.3222798 62.7787565,70.0834197 62.7787565,66.0176166 L62.7787565,0.0689119171 L0.137823834,0.0689119171 L0.137823834,73.3222798 L0.0689119171,73.3222798 Z" id="XMLID_65_"></path>
            </g>
            <path d="M86.8404145,198.28601 L75.8834197,198.28601 C80.638342,198.28601 84.4974093,194.426943 84.4974093,189.672021 L89.9414508,189.672021 L89.9414508,198.28601 L86.8404145,198.28601 Z" id="Shape" fill="#55241A" fill-rule="nonzero"></path>
            <g id="XMLID_62_" transform="translate(59.000000, 102.222798)" fill-rule="nonzero" fill="#00AAE6">
                <path d="M21.4316062,62.2274611 L35.765285,62.2274611 L35.765285,41.2782383 L26.6689119,41.2782383 C23.7746114,41.2782383 21.5005181,38.9352332 21.5005181,36.0409326 L21.5005181,27.2202073 C21.5005181,24.0502591 24.0502591,21.5005181 27.2202073,21.5005181 L40.3823834,21.5005181 L40.3823834,0.551295337 L21.3626943,0.551295337 C9.85440415,0.551295337 0.48238342,9.92331606 0.48238342,21.4316062 L0.48238342,41.2782383 C0.48238342,52.8554404 9.85440415,62.2274611 21.4316062,62.2274611 Z" id="XMLID_63_"></path>
            </g>
            <path d="M80.2937824,116.901036 C80.2937824,109.11399 86.6336788,102.774093 94.4207254,102.774093 L142.452332,102.774093 C150.239378,102.774093 156.579275,109.11399 156.579275,116.901036 L156.579275,127.858031 C156.579275,133.233161 153.54715,138.125907 148.723316,140.468912 L140.316062,144.603627 C135.492228,146.946632 132.460104,151.90829 132.460104,157.214508 L132.460104,160.039896 L104.412953,160.039896 L104.412953,157.214508 C104.412953,151.839378 101.380829,146.946632 96.5569948,144.603627 L88.1497409,140.468912 C83.3259067,138.125907 80.2937824,133.164249 80.2937824,127.858031 L80.2937824,116.901036 L80.2937824,116.901036 Z" id="XMLID_61_" fill="#00AAE6" fill-rule="nonzero"></path>
            <polygon id="Shape" fill="#FFC92F" fill-rule="nonzero" points="130.87513 102.843005 130.806218 95.6761658 108.272021 95.6761658 108.203109 102.843005 98.7621762 102.843005 98.7621762 113.868912 139.420207 113.868912 139.420207 102.843005"></polygon>
            <polygon id="XMLID_60_" fill="#00AAE6" fill-rule="nonzero" points="122.192228 162.245078 132.253368 162.245078 132.253368 211.861658 122.192228 211.861658"></polygon>
            <path d="M138.45544,215.996373 L122.26114,215.996373 L122.26114,211.861658 L138.45544,211.861658 C139.626943,211.861658 140.522798,212.826425 140.522798,213.929016 C140.522798,215.100518 139.558031,215.996373 138.45544,215.996373 Z" id="XMLID_59_" fill="#F6861E" fill-rule="nonzero"></path>
            <polygon id="XMLID_58_" fill="#F6861E" fill-rule="nonzero" points="122.192228 198.28601 132.253368 198.28601 132.253368 214.066839 122.192228 214.066839"></polygon>
            <path d="M114.474093,172.306218 L122.398964,172.306218 C127.980829,172.306218 132.460104,167.826943 132.460104,162.245078 L132.460104,156.869948 L104.412953,156.869948 L104.412953,162.245078 C104.412953,167.758031 108.892228,172.306218 114.474093,172.306218 L114.474093,172.306218 Z" id="XMLID_57_" fill="#F6861E" fill-rule="nonzero"></path>
            <polygon id="Shape" fill="#F6861E" fill-rule="nonzero" points="104.344041 158.592746 119.160104 158.592746 119.160104 172.306218 104.344041 172.306218"></polygon>
            <g id="XMLID_49_" transform="translate(156.165803, 34.000000)">
                <path d="M13.6445596,6.82227979 L13.6445596,20.9492228 L27.0823834,20.9492228 C31.6305699,20.9492228 35.2829016,24.6015544 35.2829016,29.1497409 L35.2829016,58.4373057 L0.413471503,58.4373057 L0.413471503,6.82227979 C0.413471503,3.16994819 3.37668394,0.206735751 7.02901554,0.206735751 C10.6813472,0.206735751 13.6445596,3.16994819 13.6445596,6.82227979 L13.6445596,6.82227979 Z" id="XMLID_56_" fill="#F6861E" fill-rule="nonzero"></path>
                <path d="M3.16994819,7.09792746 L3.16994819,55.6119171 L32.388601,55.6119171 L32.388601,29.1497409 C32.388601,26.1865285 29.9766839,23.7746114 27.0134715,23.7746114 L10.7502591,23.7746114 L10.7502591,7.09792746 C10.7502591,5.03056995 9.02746114,3.30777202 6.96010363,3.30777202 C4.89274611,3.30777202 3.16994819,5.03056995 3.16994819,7.09792746 Z" id="XMLID_55_" stroke="#FFFFFF" stroke-width="2.0369"></path>
                <path d="M12.8865285,40.5891192 L21.1559585,40.5891192 C23.3611399,40.5891192 25.0839378,38.7974093 25.0839378,36.6611399 C25.0839378,34.4559585 23.292228,32.7331606 21.1559585,32.7331606 L9.30310881,32.7331606 C5.92642487,32.7331606 3.10103627,35.4896373 3.10103627,38.9352332 L3.10103627,42.6564767" id="XMLID_54_" stroke="#FFFFFF" stroke-width="2.0369" stroke-linecap="round"></path>
                <path d="M25.1528497,23.7746114 L25.1528497,34.4559585 C25.1528497,36.4544041 26.8067358,38.1082902 28.8051813,38.1082902 C30.8036269,38.1082902 32.457513,36.4544041 32.457513,34.4559585 L32.457513,30.8036269" id="XMLID_53_" stroke="#FFFFFF" stroke-width="1.7085"></path>
                <path d="M10.7502591,23.0854922 L10.7502591,32.0440415" id="XMLID_52_" stroke="#FFFFFF" stroke-width="2.0369"></path>
                <path d="M17.7792746,23.7746114 L17.7792746,32.7331606" id="XMLID_51_" stroke="#FFFFFF" stroke-width="2.0369"></path>
                <path d="M17.7792746,40.5891192 L17.7792746,46.3088083" id="XMLID_50_" stroke="#FFFFFF" stroke-width="2.0369"></path>
            </g>
            <path d="M135.836788,103.876684 L102.276684,103.876684 L102.276684,80.9979275 L130.461658,80.9979275 C133.42487,80.9979275 135.767876,83.4098446 135.767876,86.3041451 L135.767876,103.876684 L135.836788,103.876684 Z" id="Shape" fill="#FFC92F" fill-rule="nonzero"></path>
            <path d="M130.806218,86.0284974 L130.806218,71.419171 C130.806218,63.5632124 124.397409,57.1544041 116.541451,57.1544041 C108.685492,57.1544041 102.276684,63.5632124 102.276684,71.419171 L102.276684,86.0284974 C102.276684,93.884456 108.685492,100.293264 116.541451,100.293264 C124.466321,100.293264 130.806218,93.9533679 130.806218,86.0284974 Z" id="XMLID_48_" fill="#FFC92F" fill-rule="nonzero"></path>
            <path d="M115.78342,87.0621762 C115.78342,90.0253886 119.02228,92.4373057 123.019171,92.4373057 C127.016062,92.4373057 130.254922,90.0253886 130.254922,87.0621762 L115.78342,87.0621762 Z" id="XMLID_47_" fill="#FFFFFF" fill-rule="nonzero"></path>
            <path d="M127.843005,67.7668394 L112.54456,67.7668394 C109.098964,67.7668394 106.273575,64.9414508 106.273575,61.4958549 L106.273575,60.7378238 C106.273575,57.8435233 108.61658,55.5005181 111.510881,55.5005181 L133.562694,55.5005181 L133.562694,62.0471503 C133.562694,65.2170984 130.944041,67.7668394 127.843005,67.7668394 Z" id="XMLID_46_" fill="#55241A" fill-rule="nonzero"></path>
            <path d="M102.345596,63.0119171 L102.345596,81.9626943 C104.619689,81.9626943 106.893782,79.757513 106.893782,75.8295337 L106.893782,58.4637306 C104.344041,58.4637306 102.345596,60.5310881 102.345596,63.0119171 Z" id="Shape" fill="#55241A" fill-rule="nonzero"></path>
            <polygon id="XMLID_45_" fill="#F8B000" fill-rule="nonzero" points="104.344041 155.905181 132.529016 155.905181 132.529016 158.592746 104.344041 158.592746"></polygon>
            <path d="M139.420207,113.868912 L144.17513,102.843005 L139.420207,102.843005 L139.420207,113.868912 Z M98.7621762,113.868912 L87.8051813,102.843005 L98.7621762,102.843005 L98.7621762,113.868912 Z" id="Shape" fill="#F6861E" fill-rule="nonzero"></path>
            <path d="M114.405181,211.861658 L104.344041,211.861658 L104.344041,167.275648 C104.344041,164.519171 106.618135,162.245078 109.374611,162.245078 C112.131088,162.245078 114.405181,164.519171 114.405181,167.275648 L114.405181,211.861658 L114.405181,211.861658 Z" id="XMLID_44_" fill="#00AAE6" fill-rule="nonzero"></path>
            <path d="M98.2108808,215.996373 L114.405181,215.996373 L114.405181,211.861658 L98.2108808,211.861658 C97.0393782,211.861658 96.1435233,212.826425 96.1435233,213.929016 C96.0746114,215.100518 97.0393782,215.996373 98.2108808,215.996373 Z" id="XMLID_43_" fill="#F6861E" fill-rule="nonzero"></path>
            <polygon id="XMLID_42_" fill="#F6861E" fill-rule="nonzero" points="104.344041 198.28601 114.405181 198.28601 114.405181 214.066839 104.344041 214.066839"></polygon>
            <path d="M98.4176166,164.450259 L90.2170984,164.450259 L90.2170984,143.569948 L98.4176166,143.569948 C101.656477,143.569948 104.344041,146.188601 104.344041,149.496373 L104.344041,158.592746 C104.344041,161.831606 101.656477,164.450259 98.4176166,164.450259 L98.4176166,164.450259 Z" id="XMLID_41_" fill="#FFC92F" fill-rule="nonzero"></path>
            <ellipse id="Oval" fill="#FFC92F" fill-rule="nonzero" cx="102.965803" cy="83.4787565" rx="3.37668394" ry="3.37668394"></ellipse>
            <path d="M111.717617,103.876684 C113.371503,104.979275 116.541451,106.426425 121.503109,106.426425 C126.464767,106.426425 129.634715,104.979275 131.288601,103.876684 L111.717617,103.876684 L111.717617,103.876684 Z" id="Shape" fill="#F8B000" fill-rule="nonzero"></path>
            <polygon id="Shape" fill="#007BE6" fill-rule="nonzero" points="162.436788 92.3683938 183.73057 92.3683938 183.73057 94.9181347 162.436788 94.9181347"></polygon>
            <path d="M119.091192,140.606736 C114.749741,140.606736 109.443523,137.712435 107.789637,132.061658 C107.789637,131.992746 103.999482,118.417098 103.999482,118.417098 L120.262694,118.417098 C124.741969,118.417098 130.048187,121.380311 131.702073,126.962176 C131.702073,127.1 135.492228,140.537824 135.492228,140.537824 L119.091192,140.537824 L119.091192,140.606736 Z" id="Shape" fill="#84D0F0" fill-rule="nonzero"></path>
            <path d="M119.091192,138.401554 C115.507772,138.401554 111.235233,135.989637 109.856995,131.441451 C109.856995,131.372539 109.788083,131.096891 109.167876,128.89171 C108.547668,126.548705 107.582902,123.240933 107.100518,121.380311 L106.893782,120.553368 L120.262694,120.553368 C123.915026,120.553368 128.256477,122.965285 129.634715,127.513472 C129.634715,127.513472 129.841451,128.133679 130.53057,130.68342 C131.288601,133.370984 132.253368,136.885492 132.460104,137.574611 L132.666839,138.401554 L119.091192,138.401554 L119.091192,138.401554 Z" id="Shape" fill="#55241A" fill-rule="nonzero"></path>
            <path d="M118.126425,135.920725 L119.918135,135.920725 L119.918135,128.271503 L122.054404,128.271503 L122.054404,126.893264 L119.918135,126.893264 L119.918135,125.721762 C119.918135,125.170466 120.12487,124.963731 120.676166,124.963731 L121.985492,124.963731 L121.985492,123.240933 L120.538342,123.240933 C119.160104,123.240933 118.057513,123.998964 118.057513,125.721762 L118.057513,126.893264 L115.990155,126.893264 L116.403627,128.271503 L118.057513,128.271503 L118.057513,135.920725 L118.126425,135.920725 Z" id="Shape" fill="#FFFFFF"></path>
            <path d="M105.102073,150.46114 L92.7668394,150.46114 L92.7668394,143.432124 L105.102073,143.432124 C106.687047,143.432124 107.996373,144.741451 107.996373,146.326425 L107.996373,147.497927 C108.065285,149.151813 106.755959,150.46114 105.102073,150.46114 Z M104.757513,157.421244 L92.4222798,157.421244 L92.4222798,150.46114 L104.757513,150.46114 C106.342487,150.46114 107.651813,151.770466 107.651813,153.35544 L107.651813,154.526943 C107.651813,156.111917 106.411399,157.421244 104.757513,157.421244 L104.757513,157.421244 Z M104.068394,164.450259 L91.7331606,164.450259 L91.7331606,157.421244 L104.068394,157.421244 C105.653368,157.421244 106.962694,158.73057 106.962694,160.315544 L106.962694,161.487047 C106.962694,163.140933 105.653368,164.450259 104.068394,164.450259 Z" id="Shape" fill="#FFC92F" fill-rule="nonzero"></path>
            <path d="M94.6963731,134.887047 C93.1803109,134.887047 91.9398964,136.127461 91.9398964,137.643523 L91.9398964,144.121244 L97.4528497,144.121244 L97.4528497,137.643523 C97.4528497,136.127461 96.2124352,134.887047 94.6963731,134.887047 Z" id="Shape" fill="#FFC92F" fill-rule="nonzero"></path>
            <polygon id="Shape" fill="#FFC92F" fill-rule="nonzero" points="90.2170984 143.569948 92.4222798 141.364767 92.4222798 144.190155"></polygon>
        </g>
    </g>
</svg>